<?xml version="1.0" standalone="no"?>
<!DOCTYPE svg PUBLIC "-//W3C//DTD SVG 20010904//EN"
 "http://www.w3.org/TR/2001/REC-SVG-20010904/DTD/svg10.dtd">
<svg version="1.0" xmlns="http://www.w3.org/2000/svg"
 width="119.000000pt" height="119.000000pt" viewBox="0 0 119.000000 119.000000"
 preserveAspectRatio="xMidYMid meet">
<metadata>
Created by potrace 1.10, written by Peter Selinger 2001-2011
</metadata>
<g transform="translate(0.000000,119.000000) scale(0.100000,-0.100000)"
fill="#000000" stroke="none">
<path d="M515 1184 c-132 -21 -239 -76 -336 -173 -122 -122 -173 -244 -173
-416 0 -173 50 -294 174 -417 59 -59 96 -86 155 -115 97 -46 109 -41 113 44
l3 61 -46 -5 c-72 -9 -127 17 -158 75 -14 26 -39 60 -56 76 -39 37 -39 46 0
46 25 0 43 -12 89 -60 48 -50 63 -60 91 -60 46 0 79 10 79 24 0 6 7 23 14 38
14 27 14 28 -12 34 -95 21 -150 52 -186 106 -35 51 -46 94 -46 173 0 56 5 82
24 119 19 37 24 63 24 110 -1 33 4 71 11 84 14 26 36 24 116 -13 45 -21 61
-22 165 -18 63 3 130 1 149 -4 29 -8 43 -5 85 18 28 15 65 30 83 34 31 6 32 5
43 -36 7 -24 9 -60 6 -80 -5 -29 0 -49 22 -90 55 -107 24 -278 -62 -344 -31
-24 -86 -46 -149 -59 -27 -6 -27 -7 -10 -33 13 -19 18 -55 21 -145 4 -92 8
-121 19 -125 8 -3 52 13 97 35 65 33 98 58 154 116 118 124 166 244 166 411 0
172 -51 294 -173 416 -79 80 -151 123 -251 153 -56 17 -193 28 -245 20z"/>
</g>
</svg>
