<?xml version="1.0" standalone="no"?>
<!DOCTYPE svg PUBLIC "-//W3C//DTD SVG 20010904//EN"
 "http://www.w3.org/TR/2001/REC-SVG-20010904/DTD/svg10.dtd">
<svg version="1.0" xmlns="http://www.w3.org/2000/svg"
 width="225.000000pt" height="225.000000pt" viewBox="0 0 225.000000 225.000000"
 preserveAspectRatio="xMidYMid meet">
<metadata>
Created by potrace 1.10, written by Peter Selinger 2001-2011
</metadata>
<g transform="translate(0.000000,225.000000) scale(0.100000,-0.100000)"
fill="#000000" stroke="none">
<path d="M1321 2034 c-101 -46 -202 -90 -224 -99 -22 -9 -37 -19 -33 -22 3 -4
16 -2 29 4 12 6 48 19 80 29 31 10 57 22 57 27 0 4 5 5 10 2 6 -4 24 1 42 9
17 9 37 16 44 16 7 0 14 4 16 9 6 17 152 66 186 63 17 -2 32 -7 32 -11 0 -5
-15 -13 -32 -19 l-33 -11 30 4 c17 3 44 1 60 -3 28 -8 24 -10 -53 -31 -46 -12
-89 -20 -95 -17 -7 2 -3 5 8 5 17 1 18 3 5 12 -12 8 -10 9 7 4 12 -3 34 -3 50
1 l28 7 -28 8 c-30 8 -87 -7 -87 -23 0 -5 -4 -6 -10 -3 -5 3 -58 -9 -117 -28
-60 -19 -136 -43 -171 -52 -34 -10 -61 -20 -58 -22 2 -2 32 3 67 13 35 9 77
16 94 16 22 -1 26 2 15 9 -11 7 0 9 35 5 30 -3 40 -2 25 3 -21 6 -14 10 48 25
46 12 77 15 83 9 6 -6 36 -2 82 9 83 21 131 25 170 14 22 -7 27 -5 27 8 0 12
-6 15 -25 10 -19 -5 -25 -2 -25 11 0 12 -6 16 -20 12 -13 -3 -21 1 -25 14 -5
14 -12 18 -27 14 -14 -5 -21 -1 -25 14 -4 17 -9 19 -24 10 -15 -8 -21 -6 -27
9 -6 16 -24 10 -191 -64z"/>
<path d="M1565 1955 c-77 -13 -162 -26 -188 -30 -27 -3 -47 -8 -45 -11 2 -2
83 4 179 12 96 9 189 17 206 18 24 1 33 6 33 19 0 21 -6 21 -185 -8z"/>
<path d="M1774 1934 c3 -9 6 -18 6 -20 0 -2 4 -4 9 -4 5 0 7 9 4 20 -3 11 -10
20 -15 20 -6 0 -7 -7 -4 -16z"/>
<path d="M1708 1913 c12 -2 32 -2 45 0 12 2 2 4 -23 4 -25 0 -35 -2 -22 -4z"/>
<path d="M374 1452 c0 -235 -1 -436 -1 -447 0 -11 0 -158 1 -326 l1 -305 752
-2 752 -1 0 753 0 754 -752 0 -752 1 -1 -427z m1338 399 c54 -2 104 -8 113
-15 15 -11 17 -77 18 -708 1 -494 -1 -700 -9 -708 -15 -15 -1399 -20 -1413 -5
-5 6 -11 144 -14 330 -3 176 -8 334 -12 350 -6 29 -6 29 11 10 16 -20 16 -20
9 5 -12 42 -26 421 -18 485 7 54 9 47 13 -75 l6 -135 2 148 c1 82 -1 146 -6
143 -9 -5 -3 146 6 156 4 4 138 8 297 9 160 1 310 4 335 8 45 6 478 7 662 2z"/>
<path d="M1463 1833 c31 -2 83 -2 115 0 31 2 5 3 -58 3 -63 0 -89 -1 -57 -3z"/>
<path d="M1350 1539 c-580 -334 -746 -432 -768 -452 -24 -22 -28 -56 -12 -88
13 -23 53 -44 177 -93 70 -27 98 -34 115 -27 13 5 79 57 147 116 67 58 125
104 128 101 5 -5 -48 -76 -149 -199 l-48 -58 0 -123 c0 -117 1 -124 25 -150
44 -47 76 -32 165 78 29 36 58 67 64 69 6 3 65 -17 131 -44 66 -26 130 -48
141 -49 12 0 33 9 46 20 30 23 32 31 118 560 33 201 62 377 65 392 6 37 -36
88 -74 88 -16 0 -123 -56 -271 -141z m308 76 c4 -41 -146 -936 -160 -952 -16
-20 -26 -17 -175 45 l-138 58 -75 -93 c-41 -51 -81 -95 -88 -98 -7 -3 -22 0
-33 5 -17 10 -19 22 -19 128 l1 117 110 135 c61 74 172 209 248 299 75 90 143
173 151 185 8 11 -57 -42 -145 -120 -88 -77 -233 -203 -323 -281 l-163 -141
-127 52 c-200 82 -229 51 378 402 340 197 513 292 530 291 20 -2 26 -8 28 -32z"/>
<path d="M1823 885 c0 -22 2 -30 4 -17 2 12 2 30 0 40 -3 9 -5 -1 -4 -23z"/>
<path d="M318 1793 c-10 -2 -18 -11 -18 -20 0 -12 3 -13 14 -3 13 10 15 4 19
-37 l3 -48 2 58 c1 31 1 56 0 56 -2 -1 -11 -3 -20 -6z"/>
<path d="M270 1730 c0 -11 -7 -20 -15 -20 -9 0 -15 -9 -15 -25 0 -16 -6 -25
-16 -25 -12 0 -15 -6 -11 -21 4 -15 0 -23 -14 -26 -14 -4 -18 -11 -14 -24 4
-12 1 -21 -10 -25 -10 -4 -13 -13 -9 -26 4 -14 0 -21 -14 -24 -17 -5 -10 -25
73 -212 51 -114 95 -216 99 -226 3 -10 9 -17 11 -14 6 5 -44 160 -54 168 -3 3
-7 16 -9 29 -1 14 -9 32 -16 40 -7 9 -11 22 -9 29 3 6 0 12 -5 12 -13 0 -62
134 -62 168 0 50 16 56 29 11 10 -32 15 -39 23 -28 6 10 7 5 3 -17 -4 -21 -1
-36 9 -47 8 -8 13 -17 10 -20 -4 -4 26 -107 66 -227 4 -14 14 -47 20 -73 7
-26 15 -46 17 -43 2 2 -3 31 -11 64 -9 33 -16 79 -17 103 -1 35 -2 39 -8 19
-6 -22 -8 -20 -16 20 -5 25 -10 72 -11 105 -1 33 -4 69 -8 80 -35 118 -45 206
-26 235 5 8 11 12 13 10 3 -3 17 -84 31 -180 26 -170 44 -241 32 -130 -10 94
-28 314 -28 338 0 15 -6 22 -19 22 -12 0 -19 -7 -19 -20z m-10 -230 c28 -109
35 -161 12 -90 -12 36 -21 50 -25 40 -4 -8 -4 -5 -1 7 2 12 -2 48 -11 81 -8
33 -15 64 -15 68 1 22 20 -29 40 -106z m-31 15 c0 -20 0 -20 -9 0 -5 11 -9 29
-9 40 0 20 0 20 9 0 5 -11 9 -29 9 -40z"/>
<path d="M1895 1225 c5 -11 9 -38 8 -60 0 -24 2 -33 6 -22 5 14 9 10 20 -20
25 -75 56 -148 64 -151 4 -2 5 -7 2 -12 -3 -4 11 -39 29 -76 19 -38 40 -88 46
-110 10 -32 17 -40 30 -37 15 4 2 40 -92 251 -61 136 -113 249 -116 252 -3 3
-1 -4 3 -15z"/>
<path d="M1911 1093 c-1 -18 4 -33 9 -33 6 0 10 -6 10 -12 0 -35 54 -217 63
-211 6 3 7 1 3 -6 -4 -6 -2 -34 5 -62 10 -37 15 -46 20 -32 10 29 21 -36 11
-71 -7 -28 -9 -25 -26 40 -10 38 -23 73 -27 79 -5 5 -2 -14 6 -43 18 -60 24
-158 11 -184 -6 -13 -4 -18 8 -18 10 0 16 9 16 25 0 14 6 25 14 25 9 0 12 8 8
25 -3 18 0 25 12 25 19 0 17 13 -18 109 -12 34 -26 58 -30 54 -4 -4 -4 -1 -1
7 3 9 -17 83 -44 165 -34 103 -50 140 -50 118z"/>
<path d="M1916 850 c3 -47 9 -119 14 -160 5 -41 11 -102 12 -136 3 -54 5 -60
23 -56 20 3 20 6 -12 198 -40 248 -43 257 -37 154z"/>
<path d="M2070 705 c0 -8 5 -15 10 -15 6 0 10 7 10 15 0 8 -4 15 -10 15 -5 0
-10 -7 -10 -15z"/>
<path d="M1210 359 c12 -8 10 -10 -9 -5 -13 3 -50 -1 -82 -8 -32 -8 -61 -11
-65 -7 -4 3 -4 0 0 -6 5 -8 1 -13 -10 -13 -21 0 -357 -90 -364 -98 -3 -2 13
-2 35 1 34 6 36 5 13 -4 -16 -6 -38 -7 -60 -1 l-33 9 45 12 c25 7 65 18 90 26
56 17 10 13 -75 -8 -61 -14 -82 -14 -122 -2 -17 5 -23 3 -23 -8 0 -10 6 -13
20 -10 14 4 20 0 20 -12 0 -13 6 -16 21 -12 15 4 23 0 26 -14 3 -10 7 -19 8
-19 2 0 81 26 177 59 203 68 358 115 364 109 2 -3 -40 -19 -94 -37 -53 -18
-128 -48 -167 -66 -99 -47 -136 -63 -166 -70 -19 -5 -25 -12 -22 -24 4 -16 38
-3 254 92 153 69 244 114 236 119 -18 12 -34 9 -17 -3z"/>
<path d="M457 320 c3 -11 9 -20 14 -20 11 0 11 3 3 24 -9 23 -23 20 -17 -4z"/>
<path d="M820 334 c-19 -2 -80 -8 -135 -14 -55 -6 -119 -11 -142 -13 -33 -1
-43 -6 -43 -19 0 -23 1 -23 230 16 171 30 203 40 90 30z"/>
<path d="M690 165 c0 -9 6 -12 15 -9 8 4 15 10 15 15 0 5 -7 9 -15 9 -8 0 -15
-7 -15 -15z"/>
</g>
</svg>
