<?xml version="1.0" standalone="no"?>
<!DOCTYPE svg PUBLIC "-//W3C//DTD SVG 20010904//EN"
 "http://www.w3.org/TR/2001/REC-SVG-20010904/DTD/svg10.dtd">
<svg version="1.0" xmlns="http://www.w3.org/2000/svg"
 width="250.000000pt" height="202.000000pt" viewBox="0 0 250.000000 202.000000"
 preserveAspectRatio="xMidYMid meet">
<metadata>
Created by potrace 1.10, written by Peter Selinger 2001-2011
</metadata>
<g transform="translate(0.000000,202.000000) scale(0.100000,-0.100000)"
fill="#000000" stroke="none">
<path d="M1267 1663 c-15 -14 -5 -23 26 -23 37 0 57 -15 57 -42 0 -16 10 -18
100 -18 l100 0 0 40 c0 46 6 44 -125 31 -62 -7 -84 -6 -100 5 -21 15 -47 18
-58 7z m268 -32 c9 -16 -10 -21 -94 -28 -70 -5 -81 -4 -81 10 0 13 13 17 63
20 34 2 72 4 84 5 12 1 24 -2 28 -7z"/>
<path d="M1040 1618 l0 -43 101 3 c71 2 99 7 96 15 -2 8 -32 12 -88 12 -68 0
-84 3 -84 15 0 12 13 14 65 12 36 -1 83 -5 105 -8 28 -4 37 -3 30 4 -5 6 -39
14 -75 17 -36 3 -84 8 -107 11 l-43 5 0 -43z"/>
<path d="M1328 1570 c-10 -37 -17 -199 -8 -175 7 15 9 16 9 4 1 -9 8 -20 17
-23 12 -5 15 -16 12 -40 -2 -19 1 -34 6 -33 16 3 19 -35 4 -45 -10 -7 -8 -8 5
-4 10 3 25 6 34 6 9 0 13 8 11 23 -2 15 -9 21 -20 19 -15 -2 -18 5 -18 48 0
46 -2 51 -20 45 -18 -6 -19 0 -22 97 -2 60 -6 93 -10 78z"/>
<path d="M1250 1490 l0 -80 28 0 c15 0 22 4 17 8 -6 4 -16 19 -24 34 -11 22
-12 30 -1 43 8 10 9 15 1 15 -6 0 -11 7 -11 15 0 8 7 15 15 15 20 0 19 16 -1
24 -9 3 -18 6 -20 6 -2 0 -4 -36 -4 -80z"/>
<path d="M1200 1356 c0 -30 5 -46 15 -50 15 -6 19 3 15 42 -1 13 6 25 16 29
16 6 16 7 -2 14 -38 15 -44 10 -44 -35z"/>
<path d="M1170 1281 c0 -21 21 -33 39 -21 10 5 9 9 -4 14 -9 3 -13 10 -10 16
3 5 -1 10 -9 10 -9 0 -16 -8 -16 -19z"/>
<path d="M1148 1167 c5 -108 -6 -120 -119 -127 -85 -5 -102 -3 -93 11 3 5 -21
9 -55 9 -47 0 -60 3 -63 16 -2 10 -15 18 -30 20 -22 2 -28 -2 -28 -17 0 -17
-7 -19 -65 -19 l-64 0 -12 -42 c-14 -54 -6 -190 14 -218 12 -17 16 -18 20 -6
4 10 24 16 59 19 l53 3 -58 2 c-53 2 -58 4 -68 30 -6 15 -8 50 -5 77 3 28 6
59 6 70 1 11 6 23 13 27 19 12 67 9 68 -4 0 -7 5 -3 11 10 19 38 108 43 108 6
0 -14 8 -16 50 -10 38 5 52 3 56 -7 3 -10 17 -12 54 -7 32 4 51 2 54 -4 3 -7
8 -7 14 2 5 7 15 10 23 7 9 -3 27 8 46 28 24 26 31 46 37 94 5 46 3 63 -6 67
-10 5 -10 7 -1 12 14 6 6 34 -11 34 -7 0 -10 -25 -8 -83z"/>
<path d="M1416 1241 c-4 -6 -12 -9 -17 -6 -5 4 -9 1 -9 -4 0 -6 8 -11 18 -11
14 0 17 -8 15 -42 -1 -24 3 -55 9 -70 13 -34 109 -100 170 -117 49 -14 113
-65 103 -81 -4 -6 -1 -9 5 -8 6 2 17 -13 23 -32 11 -32 16 -35 62 -41 28 -3
41 -7 30 -8 -16 -1 -17 -3 -5 -10 8 -6 18 -7 24 -4 5 4 7 -3 4 -15 -4 -12 -2
-20 3 -16 12 7 11 -33 -1 -57 -6 -10 -17 -19 -25 -19 -19 0 -19 -8 -1 -25 12
-12 15 -12 20 0 3 8 12 15 20 15 20 0 27 39 14 85 -16 57 -35 75 -78 75 -35 0
-38 3 -54 43 -25 66 -63 101 -132 125 -34 12 -77 30 -95 42 -19 11 -42 23 -51
26 -14 5 -18 18 -18 54 0 52 -23 120 -34 101z"/>
<path d="M710 951 c0 -22 5 -43 10 -46 6 -4 10 10 10 34 0 22 -4 43 -10 46 -6
4 -10 -10 -10 -34z"/>
<path d="M943 855 c-5 -8 -28 -16 -53 -18 -25 -2 -56 -9 -70 -15 -21 -9 -14
-11 48 -11 56 -1 74 2 78 14 7 16 94 22 94 6 0 -5 33 -19 73 -32 131 -43 343
-27 416 32 40 32 18 31 -44 -3 -52 -28 -70 -32 -161 -36 -91 -4 -111 -2 -190
23 -49 16 -91 31 -94 35 -3 3 -14 5 -25 5 -11 0 -30 3 -42 7 -15 5 -25 3 -30
-7z"/>
<path d="M754 789 c-3 -6 -1 -15 5 -19 18 -11 61 0 61 16 0 17 -56 19 -66 3z"/>
<path d="M1515 760 c-8 -13 5 -100 15 -100 4 0 10 -9 13 -21 5 -19 12 -20 86
-17 45 2 81 7 81 12 0 4 9 6 21 3 23 -6 79 10 79 23 0 16 -25 17 -59 3 -18 -8
-40 -12 -48 -8 -9 3 -21 1 -27 -4 -10 -8 -61 -15 -93 -12 -13 1 -35 38 -48 80
-5 16 -4 21 4 17 7 -4 11 1 11 13 0 22 -24 29 -35 11z"/>
</g>
</svg>
