<?xml version="1.0" standalone="no"?>
<!DOCTYPE svg PUBLIC "-//W3C//DTD SVG 20010904//EN"
 "http://www.w3.org/TR/2001/REC-SVG-20010904/DTD/svg10.dtd">
<svg version="1.0" xmlns="http://www.w3.org/2000/svg"
 width="300.000000pt" height="300.000000pt" viewBox="0 0 300.000000 300.000000"
 preserveAspectRatio="xMidYMid meet">
<metadata>
Created by potrace 1.10, written by Peter Selinger 2001-2011
</metadata>
<g transform="translate(0.000000,300.000000) scale(0.100000,-0.100000)"
fill="#000000" stroke="none">
<path d="M1405 2760 c-160 -13 -270 -41 -418 -106 -582 -257 -881 -896 -707
-1510 61 -213 163 -388 320 -545 183 -184 390 -298 640 -354 115 -26 364 -31
474 -11 271 51 504 173 690 361 157 159 267 349 326 565 27 99 32 137 37 276
9 241 -20 394 -110 587 -126 270 -329 478 -594 611 -117 59 -295 111 -409 121
-135 11 -160 12 -249 5z m299 -50 c102 -22 141 -32 161 -40 11 -5 33 -11 49
-15 43 -9 172 -72 251 -123 297 -190 501 -502 555 -847 14 -85 13 -268 -1
-373 -12 -90 -43 -208 -72 -272 -11 -25 -26 -61 -34 -80 -22 -51 -93 -171
-117 -196 -12 -12 -34 -41 -51 -64 -113 -158 -408 -349 -610 -395 -11 -2 -49
-12 -85 -20 -77 -20 -210 -29 -210 -15 0 6 15 10 33 11 39 1 71 5 157 21 36 7
70 12 75 13 6 1 17 4 25 7 8 4 40 14 70 23 58 18 222 96 246 118 7 6 51 39 96
71 96 69 199 179 268 286 27 41 54 80 59 87 6 7 11 15 11 18 0 3 7 22 17 43
45 101 85 220 90 267 2 22 9 58 15 80 9 36 12 238 4 310 -11 99 -63 281 -100
350 -9 17 -16 33 -16 37 0 11 -91 159 -128 207 -107 142 -259 264 -436 350
-191 94 -320 121 -556 116 -116 -2 -177 -9 -240 -24 -405 -101 -726 -389 -860
-774 -48 -138 -63 -222 -66 -372 -2 -77 1 -162 6 -190 27 -134 34 -163 52
-219 10 -34 21 -68 24 -76 3 -8 5 -17 4 -19 -1 -2 2 -7 7 -10 5 -3 26 -40 47
-81 21 -41 45 -84 55 -95 9 -11 30 -40 47 -64 41 -62 219 -241 239 -241 6 0
20 -11 49 -37 17 -15 182 -100 246 -127 94 -39 267 -74 383 -77 81 -2 90 -19
10 -19 -210 1 -470 82 -658 205 -16 11 -32 22 -35 25 -3 3 -27 23 -55 45 -67
53 -171 160 -204 208 -71 106 -110 171 -105 179 3 4 1 8 -4 8 -8 0 -29 43 -66
134 -17 42 -41 130 -51 186 -3 19 -10 51 -14 70 -12 57 -13 260 -1 335 6 39
13 84 15 101 7 47 63 211 95 274 56 111 62 122 76 127 8 3 11 9 8 14 -14 23
207 253 318 332 37 26 70 47 73 47 4 0 19 8 33 18 81 55 311 132 447 150 82
10 297 6 359 -8z m-46 -60 c370 -47 709 -287 884 -625 88 -172 128 -338 128
-537 0 -443 -238 -835 -630 -1037 -455 -235 -1001 -148 -1366 216 -161 161
-266 357 -320 598 -25 110 -25 338 0 455 131 611 686 1007 1304 930z"/>
<path d="M1466 2541 c-15 -17 -17 -35 -15 -106 4 -90 12 -105 56 -105 41 0 53
25 53 114 0 68 -3 86 -18 99 -25 23 -55 21 -76 -2z m54 -101 c0 -32 -4 -62
-10 -65 -5 -3 -11 2 -11 12 -1 10 -3 32 -5 48 -2 17 -2 40 1 53 10 41 25 12
25 -48z"/>
<path d="M962 2414 c-31 -22 -27 -49 22 -129 44 -73 66 -87 105 -65 31 16 26
47 -20 125 -53 91 -65 99 -107 69z m61 -62 c20 -22 50 -92 43 -100 -13 -12
-76 77 -76 108 0 15 15 12 33 -8z"/>
<path d="M1973 2393 c-39 -57 -73 -122 -73 -141 0 -27 24 -44 57 -40 23 2 36
16 72 77 37 62 43 78 35 100 -14 39 -65 42 -91 4z m47 -42 c0 -21 -40 -83 -57
-89 -21 -6 -15 21 14 66 30 45 43 53 43 23z"/>
<path d="M2012 2174 c-7 -8 -17 -12 -23 -9 -5 4 -9 1 -9 -4 0 -6 4 -11 8 -11
13 0 48 28 42 33 -3 3 -11 -1 -18 -9z"/>
<path d="M581 2036 c-7 -8 -11 -27 -9 -43 2 -23 16 -36 77 -72 62 -37 78 -43
100 -35 29 10 41 55 21 79 -18 22 -136 85 -158 85 -11 0 -25 -6 -31 -14z m115
-63 c45 -29 51 -37 35 -48 -12 -7 -111 52 -111 66 0 17 33 9 76 -18z"/>
<path d="M2350 2031 c-32 -17 -221 -125 -655 -375 -93 -54 -174 -102 -178
-106 -5 -4 -72 29 -150 75 -333 194 -390 225 -408 225 -10 0 -26 -11 -34 -24
-31 -47 -34 -45 407 -299 92 -54 170 -97 173 -97 5 0 700 399 860 494 75 44
93 77 60 110 -21 21 -32 20 -75 -3z m40 -39 c0 -7 -36 -42 -44 -42 -2 0 -7 7
-10 15 -4 10 2 19 17 25 28 11 37 12 37 2z m-62 -45 c2 -12 -3 -17 -17 -17
-12 0 -21 -5 -21 -12 0 -6 -3 -9 -6 -6 -3 3 -46 -18 -95 -48 -49 -30 -92 -54
-95 -54 -3 0 -18 -8 -32 -19 -15 -10 -47 -29 -72 -43 -25 -14 -82 -46 -126
-72 -45 -25 -87 -46 -93 -46 -6 0 -11 -4 -11 -8 0 -7 -37 -31 -165 -105 -11
-6 -32 -19 -47 -29 -25 -16 -55 -17 -79 -3 -20 13 -2 29 34 31 25 2 79 28 173
83 75 45 139 81 143 81 3 0 17 9 31 20 14 11 31 20 39 20 8 0 24 9 35 19 12
10 57 39 101 63 163 91 180 101 196 114 9 8 18 12 20 9 3 -2 18 7 34 20 33 27
48 27 53 2z m-1283 -181 c33 -18 119 -66 190 -108 72 -41 135 -77 140 -79 27
-12 85 -52 85 -59 0 -19 -22 -20 -48 -2 -15 10 -56 35 -92 55 -36 21 -74 43
-85 50 -11 6 -42 25 -70 41 -27 17 -53 35 -57 41 -4 5 -8 6 -8 2 0 -5 -12 0
-27 10 -16 10 -45 28 -65 38 -21 11 -38 25 -38 32 0 19 8 16 75 -21z"/>
<path d="M1543 2020 c2 -9 17 -16 38 -16 31 -2 31 -1 4 3 -16 3 -34 10 -38 16
-6 8 -7 7 -4 -3z"/>
<path d="M1418 2003 c12 -2 30 -2 40 0 9 3 -1 5 -23 4 -22 0 -30 -2 -17 -4z"/>
<path d="M452 1524 c-29 -20 -29 -59 1 -77 23 -14 173 -17 195 -3 20 12 14 74
-7 86 -31 16 -163 13 -189 -6z m158 -39 c0 -13 -79 -20 -111 -10 -41 13 -17
26 46 24 41 -1 65 -6 65 -14z"/>
<path d="M2441 1530 c-73 -4 -85 -8 -91 -25 -19 -53 15 -75 112 -75 65 0 81 3
98 20 23 23 25 40 8 62 -18 22 -32 24 -127 18z m74 -39 c6 -1 3 -6 -5 -11 -18
-12 -71 -13 -97 -3 -14 6 -8 9 22 13 22 3 47 5 55 4 8 -1 20 -3 25 -3z"/>
<path d="M645 1048 c-61 -38 -70 -47 -70 -73 0 -21 7 -33 26 -44 24 -13 30
-11 98 28 77 46 97 73 76 106 -21 33 -55 29 -130 -17z m85 -17 c0 -12 -76 -61
-95 -61 -24 0 -5 27 36 50 37 21 59 25 59 11z"/>
<path d="M2235 1066 c-23 -35 -7 -58 69 -101 76 -42 112 -45 128 -11 16 37 6
50 -71 95 -80 47 -104 50 -126 17z m116 -56 c19 -15 31 -31 28 -34 -9 -9 -99
46 -99 60 0 18 34 6 71 -26z"/>
<path d="M1038 760 c-9 -6 -35 -44 -58 -86 -40 -72 -41 -76 -26 -99 19 -29 56
-33 78 -7 27 31 78 129 78 149 0 20 -29 53 -46 53 -5 0 -17 -5 -26 -10z m7
-99 c-24 -49 -41 -68 -51 -58 -6 6 25 66 46 89 28 32 30 18 5 -31z"/>
<path d="M1917 752 c-10 -10 -17 -26 -17 -36 0 -18 76 -152 92 -162 18 -11 59
7 70 30 9 21 5 33 -27 88 -63 104 -84 118 -118 80z m81 -94 c12 -23 20 -43 17
-46 -7 -8 -35 19 -51 49 -32 64 -1 61 34 -3z"/>
<path d="M1470 630 c-16 -16 -20 -33 -20 -93 0 -86 16 -117 60 -117 40 0 50
23 50 119 0 71 -2 82 -22 95 -30 21 -44 20 -68 -4z m47 -100 c-1 -28 -5 -50
-8 -50 -15 0 -26 90 -13 103 15 15 23 -7 21 -53z"/>
</g>
</svg>
